<?xml version="1.0" encoding="UTF-8"?>
<svg version="1.1" xmlns="http://www.w3.org/2000/svg" width="1485" height="720">
<path d="M0 0 C490.05 0 980.1 0 1485 0 C1485 237.6 1485 475.2 1485 720 C994.95 720 504.9 720 0 720 C0 482.4 0 244.8 0 0 Z " fill="#FEFEFE" transform="translate(0,0)"/>
<path d="M0 0 C1.04027344 0.62068359 1.04027344 0.62068359 2.1015625 1.25390625 C3.17277344 1.89005859 3.17277344 1.89005859 4.265625 2.5390625 C11.30720337 7.27300751 16.24742764 14.4042146 18.62890625 22.546875 C20.37027933 32.52019356 20.24424432 43.30951071 15.1015625 52.25390625 C0.69667972 72.04621519 -26.18316113 79.55007033 -48.8984375 85.25390625 C-47.40533203 88.54175466 -45.48929369 91.16125409 -43.2734375 94.00390625 C-34.64357228 105.81897628 -29.85507716 118.02194585 -26.8984375 132.25390625 C-26.63691895 133.1965332 -26.63691895 133.1965332 -26.37011719 134.15820312 C-23.38793736 147.40821949 -25.66060631 162.56820174 -29.8984375 175.25390625 C-30.26066406 176.37925781 -30.62289062 177.50460937 -30.99609375 178.6640625 C-35.83890975 192.43735954 -43.86270514 202.96006882 -53.8984375 213.25390625 C-54.49269531 213.92164063 -55.08695313 214.589375 -55.69921875 215.27734375 C-68.9278085 229.78611961 -91.73952413 238.26382092 -111.07263184 239.44839478 C-114.39627197 239.53161566 -117.71438967 239.55735042 -121.0390625 239.5546875 C-122.24608826 239.55897263 -123.45311401 239.56325775 -124.69671631 239.56767273 C-127.22781755 239.57337581 -129.75893516 239.57394628 -132.29003906 239.56958008 C-136.15197551 239.56640334 -140.01315698 239.58998877 -143.875 239.61523438 C-146.34635321 239.61750617 -148.81770846 239.61821142 -151.2890625 239.6171875 C-153.00805756 239.63100212 -153.00805756 239.63100212 -154.76177979 239.64509583 C-163.07925914 239.59720656 -170.04527494 238.64622133 -176.515625 232.84765625 C-181.81862409 226.73572509 -184.02587563 220.27595503 -184.01196289 212.30395508 C-184.01210892 211.60125992 -184.01225494 210.89856476 -184.0124054 210.17457581 C-184.01170907 207.85333157 -184.00392976 205.53216771 -183.99609375 203.2109375 C-183.99422858 201.60096785 -183.99280514 199.99099764 -183.99180603 198.38102722 C-183.98798868 194.14448478 -183.97816505 189.90797665 -183.96710205 185.67144775 C-183.95687114 181.34802718 -183.95230481 177.02460106 -183.94726562 172.70117188 C-183.93654209 164.21873251 -183.9189516 155.7363276 -183.8984375 147.25390625 C-177.6284375 147.25390625 -171.3584375 147.25390625 -164.8984375 147.25390625 C-164.8890918 149.35870361 -164.87974609 151.46350098 -164.87011719 153.63208008 C-164.83637122 160.58125524 -164.780836 167.53013267 -164.71453476 174.47906971 C-164.67500144 178.69284958 -164.64284198 182.90641866 -164.62744141 187.12036133 C-164.61231295 191.18603117 -164.57793652 195.25112171 -164.53012848 199.31653404 C-164.51527506 200.86863868 -164.50739422 202.420826 -164.50655365 203.97300148 C-164.50419393 206.14514775 -164.47719963 208.31567998 -164.44433594 210.48754883 C-164.43545349 211.72442947 -164.42657104 212.96131012 -164.41741943 214.235672 C-164.1716128 217.30313014 -164.1716128 217.30313014 -162.14648438 219.15254211 C-159.67310226 220.36430259 -158.12557851 220.6336764 -155.38378906 220.64208984 C-154.49475891 220.65154633 -153.60572876 220.66100281 -152.6897583 220.67074585 C-151.73252869 220.66467316 -150.77529907 220.65860046 -149.7890625 220.65234375 C-148.28965118 220.65664902 -148.28965118 220.65664902 -146.75994873 220.66104126 C-144.63829993 220.66308341 -142.51663236 220.65754305 -140.39501953 220.64501953 C-137.201699 220.62917059 -134.00968381 220.6447573 -130.81640625 220.6640625 C-105.12355753 220.69129412 -83.76375421 215.76809185 -64.8984375 197.25390625 C-64.27066406 196.650625 -63.64289063 196.04734375 -62.99609375 195.42578125 C-49.94590648 181.81334101 -44.30645233 162.51876421 -44.66015625 144.0703125 C-45.80224835 125.77811604 -53.67720507 108.81506619 -67.0234375 96.25390625 C-68.6085168 94.87335332 -70.24681671 93.55411836 -71.8984375 92.25390625 C-69.87904403 88.02886457 -67.41811898 84.1571391 -64.8203125 80.265625 C-62.86127778 77.34138401 -62.86127778 77.34138401 -61.5390625 74.3359375 C-58.54766096 68.74633411 -55.44741775 66.20030027 -49.4609375 64.2890625 C-45.11398294 63.06845577 -40.73392257 62.00265595 -36.34765625 60.93359375 C-24.39842292 57.98024714 -9.54538938 52.90461525 -1.9609375 42.62890625 C0.12888894 37.95752951 0.89883986 33.3713144 0.1015625 28.25390625 C-1.72338786 23.54655767 -4.28844033 20.2312025 -8.7109375 17.75390625 C-13.8649891 15.60558194 -18.17380776 15.29774737 -23.4140625 17.13671875 C-32.68254699 21.32696174 -37.37762343 28.69510518 -42.8984375 36.94140625 C-44.04721921 38.63866956 -45.19699094 40.33526312 -46.34765625 42.03125 C-47.2281665 43.3303833 -47.2281665 43.3303833 -48.12646484 44.65576172 C-50.95125595 48.79759514 -53.82941137 52.9014292 -56.7109375 57.00390625 C-57.88550773 58.67832154 -59.05998531 60.35280183 -60.234375 62.02734375 C-60.83088867 62.87780273 -61.42740234 63.72826172 -62.04199219 64.60449219 C-67.34007353 72.16561511 -72.61297522 79.74401362 -77.86962891 87.33398438 C-79.91503073 90.27778772 -81.97460067 93.21132136 -84.03515625 96.14453125 C-93.80555682 109.9634909 -93.80555682 109.9634909 -100.8984375 125.25390625 C-101.23101563 126.16011719 -101.56359375 127.06632813 -101.90625 128 C-105.84673911 140.79771465 -105.50116473 156.71147456 -100.8984375 169.25390625 C-100.67800781 169.86153809 -100.45757813 170.46916992 -100.23046875 171.09521484 C-96.25928555 181.7612036 -90.65364372 193.75043544 -80.8984375 200.25390625 C-80.8984375 200.91390625 -80.8984375 201.57390625 -80.8984375 202.25390625 C-83.30756105 203.62327126 -85.72417935 204.97432618 -88.1484375 206.31640625 C-88.83035156 206.70634766 -89.51226563 207.09628906 -90.21484375 207.49804688 C-91.21064453 208.04428711 -91.21064453 208.04428711 -92.2265625 208.6015625 C-93.13776855 209.1121521 -93.13776855 209.1121521 -94.06738281 209.63305664 C-96.42389594 210.43207169 -97.60013854 210.15417106 -99.8984375 209.25390625 C-115.35495408 193.48195056 -123.07311192 170.7784922 -123.0859375 149.12890625 C-123.09818359 148.06414062 -123.11042969 146.999375 -123.12304688 145.90234375 C-123.17079652 119.67187208 -111.43101406 100.47925542 -96.3828125 80.046875 C-92.61511008 74.90958496 -89.03228908 69.65384418 -85.4609375 64.37890625 C-78.91835382 54.72825877 -72.27365217 45.15551445 -65.55957031 35.62353516 C-63.91874685 33.28287781 -62.29345536 30.93214396 -60.671875 28.578125 C-46.87965917 8.62365938 -26.50675939 -13.07120266 0 0 Z " fill="#86A3A1" transform="translate(818.8984375,169.74609375)"/>
<path d="M0 0 C9.5941326 6.21506703 15.84751241 14.48469322 22.0078125 23.96484375 C24.41820866 27.63715319 26.97066776 31.19456894 29.5546875 34.74609375 C32.43029557 39.23048796 32.43029557 39.23048796 33 42 C31.64844213 44.36598558 30.41997248 46.14141206 28.6875 48.1875 C27.83637503 49.24279288 26.986078 50.2987542 26.13671875 51.35546875 C25.43160156 52.22816406 24.72648438 53.10085937 24 54 C23.505 54.99 23.505 54.99 23 56 C19.63606452 54.59975338 18.08639325 53.12568808 16.08203125 50.10546875 C15.55391846 49.32026855 15.02580566 48.53506836 14.48168945 47.72607422 C13.93085693 46.88834473 13.38002441 46.05061523 12.8125 45.1875 C11.65642423 43.46472682 10.50017334 41.74207114 9.34375 40.01953125 C8.77785156 39.16955566 8.21195313 38.31958008 7.62890625 37.44384766 C5.38074151 34.07092664 3.10515201 30.71778789 0.8125 27.375 C0.11769531 26.35148437 -0.57710937 25.32796875 -1.29296875 24.2734375 C-2.7999658 21.91388295 -2.7999658 21.91388295 -5 21 C-5 20.34 -5 19.68 -5 19 C-6.32258472 18.31225595 -7.65986503 17.65288627 -9 17 C-10.051875 16.46375 -11.10375 15.9275 -12.1875 15.375 C-17.58894346 13.10314824 -22.76099317 13.22495918 -28.25 15.125 C-32.08084349 17.73693874 -34.90161815 20.80323629 -37 25 C-37.52736173 31.20664192 -37.76247482 36.78108332 -34 42 C-29.23244555 46.81079757 -23.99673656 49.83563789 -17.875 52.625 C-16.6231189 53.20519897 -16.6231189 53.20519897 -15.34594727 53.79711914 C-5.54308435 58.24816409 4.3796427 61.17799739 15 63 C15.33 63.99 15.66 64.98 16 66 C15.07543945 67.8059082 15.07543945 67.8059082 13.61328125 69.80078125 C12.8234082 70.89616211 12.8234082 70.89616211 12.01757812 72.01367188 C11.45490234 72.77228516 10.89222656 73.53089844 10.3125 74.3125 C9.22464167 75.8081439 8.13739065 77.30422973 7.05078125 78.80078125 C6.56262939 79.46247314 6.07447754 80.12416504 5.5715332 80.8059082 C3.87274744 83.08039075 3.87274744 83.08039075 2.32978821 86.09179688 C0 89 0 89 -3.12503052 89.73930359 C-4.35365814 89.7346962 -5.58228577 89.73008881 -6.84814453 89.7253418 C-7.86832672 89.73405807 -7.86832672 89.73405807 -8.90911865 89.74295044 C-11.15122234 89.75573222 -13.3908782 89.72706839 -15.6328125 89.69921875 C-17.19173158 89.70285232 -18.75064628 89.70955346 -20.30953979 89.7191925 C-24.40913187 89.73826163 -28.50787695 89.72422585 -32.60742188 89.70068359 C-39.17609813 89.66628595 -45.74456695 89.67202491 -52.31325912 89.6968174 C-54.61026254 89.6991954 -56.90649394 89.68135559 -59.20339966 89.6615448 C-60.60581466 89.66129677 -62.00822998 89.66169375 -63.41064453 89.6628418 C-64.63768097 89.65584763 -65.86471741 89.64885345 -67.12893677 89.64164734 C-68.55011307 89.81903191 -68.55011307 89.81903191 -70 90 C-75.39071693 98.0860754 -72.62649719 109.28892693 -73 119 C-54.19 119 -35.38 119 -16 119 C-18 136 -18 136 -19 138 C-27.92729029 138.1158549 -36.85432181 138.20469479 -45.78219986 138.25906086 C-49.92782393 138.28515421 -54.07293368 138.32054618 -58.21826172 138.37719727 C-62.21887006 138.43152836 -66.21898376 138.46142251 -70.21993256 138.47438622 C-71.74622129 138.48362431 -73.27248297 138.50166473 -74.7985611 138.52865028 C-76.93694011 138.56495893 -79.07327635 138.56994515 -81.21191406 138.56762695 C-82.4288092 138.57873001 -83.64570435 138.58983307 -84.8994751 138.60127258 C-88 138 -88 138 -90.39190674 135.73204041 C-91.97080761 133.04959587 -92.50387676 131.76741303 -92.51757812 128.71972656 C-92.53018677 127.90828186 -92.54279541 127.09683716 -92.55578613 126.26080322 C-92.54768921 125.39614441 -92.53959229 124.5314856 -92.53125 123.640625 C-92.5350769 122.73681091 -92.53890381 121.83299683 -92.54284668 120.90179443 C-92.54556353 118.99213547 -92.53821821 117.08243914 -92.52148438 115.17285156 C-92.50017073 112.27322682 -92.52124148 109.37610793 -92.546875 106.4765625 C-92.54422974 104.61457793 -92.53910066 102.7525949 -92.53125 100.890625 C-92.53934692 100.03406311 -92.54744385 99.17750122 -92.55578613 98.29498291 C-92.42495007 89.74403078 -89.42222939 82.80817941 -83.64453125 76.50390625 C-78.68850639 71.97167449 -73.24590819 69.9315334 -66.59863281 69.79467773 C-65.3077475 69.7647599 -65.3077475 69.7647599 -63.99078369 69.73423767 C-63.07085632 69.71752518 -62.15092896 69.70081268 -61.203125 69.68359375 C-60.25435486 69.66281265 -59.30558472 69.64203156 -58.32806396 69.62062073 C-55.30211518 69.55532066 -52.2760808 69.49633112 -49.25 69.4375 C-47.19660579 69.3942962 -45.14322018 69.35068131 -43.08984375 69.30664062 C-38.0599832 69.19965927 -33.03003668 69.09833677 -28 69 C-28.89275635 68.52731689 -29.7855127 68.05463379 -30.70532227 67.56762695 C-31.88826077 66.9371565 -33.07111781 66.30653319 -34.25390625 65.67578125 C-35.4147876 65.05872314 -36.57566895 64.44166504 -37.77172852 63.8059082 C-47.37491746 58.43384524 -53.42453801 50.07221331 -56.5234375 39.46875 C-58.78309681 27.76297391 -56.07405842 18.03068244 -49.6875 8.125 C-46.70439533 4.30551085 -43.06793435 1.58529893 -39 -1 C-38.37867188 -1.41636719 -37.75734375 -1.83273438 -37.1171875 -2.26171875 C-26.06055995 -8.44042238 -10.43968469 -6.18879512 0 0 Z " fill="#85ACA5" transform="translate(707,172)"/>
<path d="M0 0 C2.98828125 0.25390625 2.98828125 0.25390625 5.04296875 1.765625 C22.75651613 22.93825567 30.35371842 46.87957337 27.98828125 74.25390625 C27.22206011 79.77637416 25.7553221 84.96437086 23.98828125 90.25390625 C23.62605469 91.37925781 23.26382813 92.50460937 22.890625 93.6640625 C18.047809 107.43735954 10.02401361 117.96006882 -0.01171875 128.25390625 C-0.60597656 128.92164063 -1.20023438 129.589375 -1.8125 130.27734375 C-15.04108975 144.78611961 -37.85280538 153.26382092 -57.18591309 154.44839478 C-60.50955322 154.53161566 -63.82767092 154.55735042 -67.15234375 154.5546875 C-68.35936951 154.55897263 -69.56639526 154.56325775 -70.80999756 154.56767273 C-73.3410988 154.57337581 -75.87221641 154.57394628 -78.40332031 154.56958008 C-82.26525676 154.56640334 -86.12643823 154.58998877 -89.98828125 154.61523438 C-92.45963446 154.61750617 -94.93098971 154.61821142 -97.40234375 154.6171875 C-99.12133881 154.63100212 -99.12133881 154.63100212 -100.87506104 154.64509583 C-109.19254039 154.59720656 -116.15855619 153.64622133 -122.62890625 147.84765625 C-127.93190534 141.73572509 -130.13915688 135.27595503 -130.12524414 127.30395508 C-130.12539017 126.60125992 -130.12553619 125.89856476 -130.12568665 125.17457581 C-130.12499032 122.85333157 -130.11721101 120.53216771 -130.109375 118.2109375 C-130.10750983 116.60096785 -130.10608639 114.99099764 -130.10508728 113.38102722 C-130.10126993 109.14448478 -130.0914463 104.90797665 -130.0803833 100.67144775 C-130.07015239 96.34802718 -130.06558606 92.02460106 -130.06054688 87.70117188 C-130.04982334 79.21873251 -130.03223285 70.7363276 -130.01171875 62.25390625 C-123.74171875 62.25390625 -117.47171875 62.25390625 -111.01171875 62.25390625 C-111.00237305 64.35870361 -110.99302734 66.46350098 -110.98339844 68.63208008 C-110.94965247 75.58125524 -110.89411725 82.53013267 -110.82781601 89.47906971 C-110.78828269 93.69284958 -110.75612323 97.90641866 -110.74072266 102.12036133 C-110.7255942 106.18603117 -110.69121777 110.25112171 -110.64340973 114.31653404 C-110.62855631 115.86863868 -110.62067547 117.420826 -110.6198349 118.97300148 C-110.61747518 121.14514775 -110.59048088 123.31567998 -110.55761719 125.48754883 C-110.54873474 126.72442947 -110.53985229 127.96131012 -110.53070068 129.235672 C-110.28489405 132.30313014 -110.28489405 132.30313014 -108.25976562 134.15254211 C-105.78638351 135.36430259 -104.23885976 135.6336764 -101.49707031 135.64208984 C-100.60804016 135.65154633 -99.71901001 135.66100281 -98.80303955 135.67074585 C-97.84580994 135.66467316 -96.88858032 135.65860046 -95.90234375 135.65234375 C-94.40293243 135.65664902 -94.40293243 135.65664902 -92.87322998 135.66104126 C-90.75158118 135.66308341 -88.62991361 135.65754305 -86.50830078 135.64501953 C-83.31498025 135.62917059 -80.12296506 135.6447573 -76.9296875 135.6640625 C-51.23683878 135.69129412 -29.87703546 130.76809185 -11.01171875 112.25390625 C-10.38394531 111.650625 -9.75617188 111.04734375 -9.109375 110.42578125 C3.94081227 96.81334101 9.58026642 77.51876421 9.2265625 59.0703125 C8.0844704 40.77811604 0.20951368 23.81506619 -13.13671875 11.25390625 C-14.72179805 9.87335332 -16.36009796 8.55411836 -18.01171875 7.25390625 C-16.27734375 3.40234375 -16.27734375 3.40234375 -13.88671875 2.06640625 C-9.28499175 0.76591819 -4.73516328 0.39920313 0 0 Z " fill="#0C5361" transform="translate(765.01171875,254.74609375)"/>
<path d="M0 0 C8.24506297 4.9417945 12.30446126 11.36387354 16.375 19.875 C18.49148639 30.45743196 17.0697754 40.50413025 11.6015625 49.76171875 C5.26618719 58.61579205 -3.41847258 63.20313685 -14 65 C-23.52130848 66.02253489 -33.41838874 63.80276582 -41.375 58.375 C-47.84650834 52.95922501 -52.14871209 46.20854072 -54 38 C-55.00704511 26.51265981 -54.2457673 16.94650745 -46.8125 7.75 C-34.69892798 -5.09142613 -15.72260539 -8.53223513 0 0 Z " fill="#105461" transform="translate(750,450)"/>
<path d="M0 0 C5.61 -0.04125 11.22 -0.0825 17 -0.125 C18.75441406 -0.14320801 20.50882813 -0.16141602 22.31640625 -0.18017578 C23.73176774 -0.18602569 25.14713263 -0.19112006 26.5625 -0.1953125 C27.27728516 -0.20554443 27.99207031 -0.21577637 28.72851562 -0.22631836 C38.34678871 -0.22959434 47.10205423 2.4519075 54.2421875 9.08203125 C61.20654312 16.5693513 63.57224022 22.72073119 63.5 32.8125 C63.49645508 33.6981665 63.49291016 34.58383301 63.48925781 35.49633789 C63.31571857 42.32661601 62.09003521 47.40750287 58 53 C57.443125 53.9075 56.88625 54.815 56.3125 55.75 C48.57041831 63.28283624 39.67778297 66.33232974 29.1015625 66.1953125 C28.36059326 66.19329834 27.61962402 66.19128418 26.85620117 66.18920898 C24.11240365 66.17881688 21.36869501 66.15089472 18.625 66.125 C9.405625 66.063125 9.405625 66.063125 0 66 C0 44.22 0 22.44 0 0 Z " fill="#0C515E" transform="translate(866,447)"/>
<path d="M0 0 C1.13091064 -0.00857025 2.26182129 -0.0171405 3.42700195 -0.02597046 C5.81735568 -0.0374301 8.20777914 -0.03847739 10.59814453 -0.02978516 C14.21121195 -0.02350492 17.82093565 -0.07026684 21.43359375 -0.12109375 C34.57849688 -0.19167575 44.46039621 0.7334955 56.25 6.6015625 C59.88525216 7.7508678 63.54085997 8.72247318 67.25 9.6015625 C66.71954477 13.42084014 66.01878724 15.86031172 63.25 18.6015625 C60.245224 19.10035706 60.245224 19.10035706 56.51538086 19.09985352 C55.83540543 19.10537231 55.15542999 19.11089111 54.45484924 19.11657715 C52.98000412 19.12589662 51.50507852 19.12600264 50.03022575 19.11798286 C47.69768312 19.105376 45.36632781 19.11661826 43.03382874 19.13401794 C38.92622917 19.160742 34.81891978 19.16631257 30.71124268 19.16491699 C24.13255515 19.16268957 17.55422583 19.17668613 10.9756794 19.22050285 C8.67434663 19.23037437 6.373572 19.2216082 4.07225037 19.21180725 C2.66657133 19.21794884 1.26089538 19.22485969 -0.14477539 19.23266602 C-1.37482803 19.23170425 -2.60488068 19.23074249 -3.87220764 19.22975159 C-4.82187912 19.35244919 -5.7715506 19.47514679 -6.75 19.6015625 C-12.14071693 27.6876379 -9.37649719 38.89048943 -9.75 48.6015625 C9.06 48.6015625 27.87 48.6015625 47.25 48.6015625 C45.25 65.6015625 45.25 65.6015625 44.25 67.6015625 C35.32270971 67.7174174 26.39567819 67.80625729 17.46780014 67.86062336 C13.32217607 67.88671671 9.17706632 67.92210868 5.03173828 67.97875977 C1.03112994 68.03309086 -2.96898376 68.06298501 -6.96993256 68.07594872 C-8.49622129 68.08518681 -10.02248297 68.10322723 -11.5485611 68.13021278 C-13.68694011 68.16652143 -15.82327635 68.17150765 -17.96191406 68.16918945 C-19.1788092 68.18029251 -20.39570435 68.19139557 -21.6494751 68.20283508 C-24.75 67.6015625 -24.75 67.6015625 -27.14190674 65.33360291 C-28.72080761 62.65115837 -29.25387676 61.36897553 -29.26757812 58.32128906 C-29.28018677 57.50984436 -29.29279541 56.69839966 -29.30578613 55.86236572 C-29.29768921 54.99770691 -29.28959229 54.1330481 -29.28125 53.2421875 C-29.2850769 52.33837341 -29.28890381 51.43455933 -29.29284668 50.50335693 C-29.29556353 48.59369797 -29.28821821 46.68400164 -29.27148438 44.77441406 C-29.25017073 41.87478932 -29.27124148 38.97767043 -29.296875 36.078125 C-29.29422974 34.21614043 -29.28910066 32.3541574 -29.28125 30.4921875 C-29.28934692 29.63562561 -29.29744385 28.77906372 -29.30578613 27.89654541 C-29.1742488 19.29976092 -26.10018824 12.73301774 -20.60546875 6.20703125 C-13.97975294 0.47404347 -8.52732655 -0.01444417 0 0 Z " fill="#105563" transform="translate(643.75,242.3984375)"/>
<path d="M0 0 C2.13794422 -0.00960226 4.27488366 -0.04055909 6.41259766 -0.07226562 C16.21196031 -0.14929651 25.21423331 0.2876779 32.6184082 7.43896484 C40.34480289 16.38378518 40.00321565 26.42411798 40.08862305 37.66430664 C40.11190479 40.5637418 40.1724385 43.46063535 40.23876953 46.359375 C40.27023292 48.21155301 40.29960396 50.063768 40.32666016 51.91601562 C40.34317123 52.77753738 40.35968231 53.63905914 40.37669373 54.52668762 C40.39816839 58.82985179 40.38467045 62.40819053 38.17431641 66.24023438 C34.53050352 68.66944296 32.83819196 68.48309002 28.49975586 68.46728516 C27.82632141 68.46757721 27.15288696 68.46786926 26.45904541 68.46817017 C24.23509802 68.46677782 22.01148646 68.4512214 19.78759766 68.43554688 C18.24489017 68.4318164 16.70218031 68.42896959 15.1594696 68.42697144 C11.10042776 68.41933767 7.0415292 68.39969144 2.98254395 68.37756348 C-1.15989239 68.3570995 -5.3023519 68.34796854 -9.44482422 68.33789062 C-17.57184307 68.31644526 -25.69874551 68.28231246 -33.82568359 68.24023438 C-33.95845703 67.37140625 -34.09123047 66.50257813 -34.22802734 65.60742188 C-34.40462891 64.455 -34.58123047 63.30257812 -34.76318359 62.11523438 C-34.93720703 60.97828125 -35.11123047 59.84132813 -35.29052734 58.66992188 C-35.78150167 55.5233857 -36.30213681 52.38151508 -36.82568359 49.24023438 C-18.01568359 49.24023438 0.79431641 49.24023438 20.17431641 49.24023438 C19.84431641 40.00023437 19.51431641 30.76023437 19.17431641 21.24023438 C16.28534416 19.79574825 13.74940746 20.07540577 10.52148438 20.03491211 C9.83844238 20.02501251 9.15540039 20.01511292 8.45166016 20.00491333 C6.18997688 19.97328129 3.92827258 19.94853427 1.66650391 19.92382812 C0.09993946 19.90326006 -1.46661942 19.88226363 -3.03317261 19.8608551 C-7.15952041 19.80561915 -11.28591843 19.75621662 -15.41235352 19.70800781 C-19.62179033 19.65780389 -23.8311541 19.60211205 -28.04052734 19.546875 C-36.30218436 19.4392748 -44.56390242 19.33783399 -52.82568359 19.24023438 C-52.82568359 18.58023437 -52.82568359 17.92023438 -52.82568359 17.24023438 C-51.60236328 16.83933594 -50.37904297 16.4384375 -49.11865234 16.02539062 C-1.27767438 0.00346958 -1.27767438 0.00346958 0 0 Z " fill="#879098" transform="translate(833.82568359375,241.759765625)"/>
<path d="M0 0 C6.27 0 12.54 0 19 0 C19.09074739 8.93687296 19.16397158 17.87343467 19.20724869 26.81066608 C19.22803052 30.96159948 19.25617348 35.11219846 19.30175781 39.26293945 C19.3455548 43.27652919 19.36920763 47.28979939 19.37950897 51.30360985 C19.38684017 52.82687591 19.40115459 54.35012658 19.42292023 55.87325478 C19.5681626 66.46861601 18.62071352 75.249455 12.875 84.375 C5.05317882 91.51666281 -2.75499482 92.74638204 -13.06640625 92.62890625 C-14.91576027 92.63252419 -14.91576027 92.63252419 -16.80247498 92.63621521 C-19.40195949 92.63523989 -22.00146559 92.62192237 -24.60083008 92.59692383 C-28.5269449 92.56280895 -32.45077959 92.57623857 -36.37695312 92.59570312 C-51.94652698 92.58717226 -66.9455681 92.49560767 -81 85 C-79.37721261 83.26902678 -77.71719126 81.63578942 -76 80 C-75.29488281 79.29101562 -74.58976563 78.58203125 -73.86328125 77.8515625 C-73.06277344 77.11679687 -72.26226563 76.38203125 -71.4375 75.625 C-70.69371094 74.91601562 -69.94992187 74.20703125 -69.18359375 73.4765625 C-65.63866424 71.83241115 -64.33215817 71.97124475 -60.53540039 72.39282227 C-54.42598091 72.98943461 -48.38579596 73.19283527 -42.25 73.23828125 C-41.18885986 73.246353 -40.12771973 73.25442474 -39.03442383 73.26274109 C-36.81609674 73.27644721 -34.59774976 73.28722828 -32.37939453 73.29516602 C-30.11207901 73.30679579 -27.84479309 73.327416 -25.57763672 73.35668945 C-22.28073779 73.39913981 -18.98463732 73.4154903 -15.6875 73.42578125 C-14.67397461 73.44328934 -13.66044922 73.46079742 -12.61621094 73.47883606 C-11.67422852 73.47591049 -10.73224609 73.47298492 -9.76171875 73.4699707 C-8.93631592 73.47583694 -8.11091309 73.48170319 -7.26049805 73.48774719 C-4.04634354 72.79422974 -2.92100638 71.64932578 -1 69 C-0.38337737 65.81722777 -0.38337737 65.81722777 -0.45410156 62.21191406 C-0.43859505 61.20154335 -0.43859505 61.20154335 -0.42277527 60.17076111 C-0.39335994 57.95213803 -0.39184849 55.7344277 -0.390625 53.515625 C-0.37564234 51.9743272 -0.35891501 50.43304546 -0.34051514 48.89178467 C-0.2968383 44.84103659 -0.27684202 40.79050507 -0.26177979 36.73956299 C-0.24220973 32.60358879 -0.20023967 28.46784851 -0.16015625 24.33203125 C-0.08485038 16.22138672 -0.03663237 8.1109115 0 0 Z " fill="#868F97" transform="translate(835,317)"/>
<path d="M0 0 C12 0 12 0 14.81176758 2.48754883 C15.7189856 4.20494263 15.7189856 4.20494263 16.64453125 5.95703125 C16.98828293 6.57462814 17.33203461 7.19222504 17.686203 7.82853699 C18.77299719 9.80261388 19.79269178 11.80314133 20.8125 13.8125 C21.51325789 15.11886313 22.21830853 16.42293306 22.92773438 17.72460938 C23.97102391 19.64330034 25.00969758 21.56342142 26.03005981 23.49441528 C30.70801807 32.82381931 30.70801807 32.82381931 37 41 C37.34144043 40.3922876 37.68288086 39.7845752 38.03466797 39.15844727 C43.87312532 28.77538166 49.71531836 18.39567225 55.75 8.125 C56.37624268 7.0568103 56.37624268 7.0568103 57.01513672 5.96704102 C59.87231898 1.12768102 59.87231898 1.12768102 61 0 C64.63 0 68.26 0 72 0 C72 21.78 72 43.56 72 66 C68.04 66 64.08 66 60 66 C59.67 52.8 59.34 39.6 59 26 C54.61552901 33.86592438 54.61552901 33.86592438 50.2355957 41.734375 C49.06632379 43.82723787 47.88626028 45.91409365 46.69775391 47.99609375 C45.65367557 49.84342476 44.63847452 51.70788206 43.67333984 53.59765625 C43.27969238 54.32855469 42.88604492 55.05945313 42.48046875 55.8125 C42.16360107 56.43769531 41.8467334 57.06289063 41.52026367 57.70703125 C40 59 40 59 36.58398438 59.52563477 C33 59 33 59 30.8918457 56.81616211 C30.32554443 55.81335205 29.75924316 54.81054199 29.17578125 53.77734375 C28.53962891 52.68099609 27.90347656 51.58464844 27.24804688 50.45507812 C26.60224303 49.28289431 25.95706518 48.1103654 25.3125 46.9375 C24.66216797 45.80376953 24.01183594 44.67003906 23.34179688 43.50195312 C21.53732184 40.3473408 19.76768946 37.17531726 18 34 C16.68 31.69 15.36 29.38 14 27 C13.67 40.2 13.34 53.4 13 67 C8.71 67 4.42 67 0 67 C0 44.89 0 22.78 0 0 Z " fill="#0E525F" transform="translate(778,447)"/>
<path d="M0 0 C4.95 0 9.9 0 15 0 C15.76441406 1.71058594 16.52882813 3.42117188 17.31640625 5.18359375 C18.11114504 6.95967745 18.90589487 8.73575621 19.70083618 10.51174927 C20.27488352 11.79469984 20.84859415 13.07780112 21.42196655 14.36105347 C24.97209283 22.305405 28.55729863 30.2318815 32.203125 38.1328125 C33.23561229 40.3773271 34.26769548 42.62202723 35.29977417 44.86672974 C35.97374246 46.32801322 36.65043203 47.78804475 37.3298645 49.24679565 C38.28519051 51.29823595 39.23130344 53.35370404 40.17578125 55.41015625 C40.72145752 56.58715088 41.26713379 57.76414551 41.8293457 58.97680664 C43 62 43 62 43 66 C38.71 66 34.42 66 30 66 C25.125 56.625 25.125 56.625 24 51 C7.665 51.495 7.665 51.495 -9 52 C-10.98 56.62 -12.96 61.24 -15 66 C-19.62 66 -24.24 66 -29 66 C-26.66817566 58.36710786 -23.48135691 51.32794191 -20.0625 44.125 C-18.89879885 41.65269749 -17.73975994 39.17822922 -16.58203125 36.703125 C-16.139767 35.75848892 -16.139767 35.75848892 -15.68856812 34.79476929 C-10.97091521 24.68844778 -6.50104766 14.46916385 -2.00878906 4.26123047 C-1.36900856 2.82714358 -0.70227121 1.40454243 0 0 Z " fill="#0E525E" transform="translate(577,447)"/>
<path d="M0 0 C2.7607425 1.70380552 4.71704843 3.7334373 6.8671875 6.15234375 C5.58170341 7.4916388 4.28860595 8.82363018 2.9921875 10.15234375 C2.27289062 10.89484375 1.55359375 11.63734375 0.8125 12.40234375 C-1.1328125 14.15234375 -1.1328125 14.15234375 -3.1328125 14.15234375 C-3.1328125 13.49234375 -3.1328125 12.83234375 -3.1328125 12.15234375 C-3.8546875 11.86359375 -4.5765625 11.57484375 -5.3203125 11.27734375 C-7.02521717 10.59538188 -8.71795909 9.88008804 -10.3828125 9.10546875 C-16.80782236 6.87861874 -25.32458911 6.91769496 -31.6328125 9.58984375 C-36.22816602 12.47184348 -39.23622011 16.0672772 -41.1328125 21.15234375 C-42.24267744 28.50144941 -42.59770383 35.8456204 -38.5703125 42.40234375 C-35.58911324 45.9866362 -32.76028854 49.03328092 -28.1328125 50.15234375 C-20.98746828 50.64814315 -14.182561 50.56229345 -7.1328125 49.15234375 C-7.1328125 42.22234375 -7.1328125 35.29234375 -7.1328125 28.15234375 C-2.8428125 28.15234375 1.4471875 28.15234375 5.8671875 28.15234375 C5.8671875 37.39234375 5.8671875 46.63234375 5.8671875 56.15234375 C-7.36431764 62.76809632 -20.27462153 66.27379495 -34.9375 62.05859375 C-44.9652148 57.26162077 -51.28639544 50.26838641 -55.3828125 40.02734375 C-57.55567233 28.80090129 -56.38500245 19.19169297 -50.4453125 9.46484375 C-47.29025935 5.00425137 -43.77494935 1.9911226 -39.1328125 -0.84765625 C-38.50117187 -1.26144531 -37.86953125 -1.67523438 -37.21875 -2.1015625 C-26.10153022 -8.26110319 -10.74222362 -5.53830595 0 0 Z " fill="#105461" transform="translate(679.1328125,450.84765625)"/>
<path d="M0 0 C16.17 0 32.34 0 49 0 C49 3.63 49 7.26 49 11 C37.12 11 25.24 11 13 11 C13 16.28 13 21.56 13 27 C23.56 27 34.12 27 45 27 C45 30.63 45 34.26 45 38 C34.44 38 23.88 38 13 38 C13 43.61 13 49.22 13 55 C25.21 55 37.42 55 50 55 C50 58.63 50 62.26 50 66 C33.5 66 17 66 0 66 C0 44.22 0 22.44 0 0 Z " fill="#105361" transform="translate(941,447)"/>
<path d="M0 0 C4.87393642 3.60006667 9.03995795 8.20030859 11.375 13.8359375 C12.47748191 22.40048118 11.61759106 29.81531057 6.375 36.8359375 C1.07817202 41.85459509 -3.79295765 43.01416816 -10.9375 43.1484375 C-12.23300781 43.18582031 -13.52851562 43.22320312 -14.86328125 43.26171875 C-20.57910749 42.61475607 -24.23932655 39.7232908 -27.875 35.3984375 C-28.35453125 34.84285156 -28.8340625 34.28726563 -29.328125 33.71484375 C-33.37385341 27.85341192 -33.32387143 21.71713316 -32.625 14.8359375 C-30.842402 8.15683613 -26.14711403 3.7479074 -20.625 -0.1640625 C-14.4853126 -2.21062497 -6.01204313 -2.66605484 0 0 Z " fill="#FAFDFD" transform="translate(741.625,459.1640625)"/>
<path d="M0 0 C24.61815693 0 24.61815693 0 32.5234375 7.41796875 C37.23559314 12.46670693 37.48684051 17.39503965 37.2734375 24.03515625 C36.56685961 31.69647935 33.99121218 35.61525248 28.1328125 40.5546875 C19.03314585 46.72112827 12.49283763 44 0 44 C0 29.48 0 14.96 0 0 Z " fill="#FAFDFD" transform="translate(879,458)"/>
<path d="M0 0 C4.29 0 8.58 0 13 0 C13 18.15 13 36.3 13 55 C24.22 55 35.44 55 47 55 C47 58.63 47 62.26 47 66 C31.49 66 15.98 66 0 66 C0 44.22 0 22.44 0 0 Z " fill="#0B5462" transform="translate(497,447)"/>
<path d="M0 0 C0.66 0 1.32 0 2 0 C3.67557981 3.76693513 5.33891867 7.53915174 7 11.3125 C7.47695313 12.38435547 7.95390625 13.45621094 8.4453125 14.56054688 C9.12207031 16.10258789 9.12207031 16.10258789 9.8125 17.67578125 C10.23144531 18.62364502 10.65039062 19.57150879 11.08203125 20.5480957 C12 23 12 23 12 26 C4.74 26 -2.52 26 -10 26 C-6.625 15.875 -6.625 15.875 -5.17578125 12.40234375 C-4.86962891 11.66435547 -4.56347656 10.92636719 -4.24804688 10.16601562 C-3.93931641 9.43060547 -3.63058594 8.69519531 -3.3125 7.9375 C-2.83200195 6.78217773 -2.83200195 6.78217773 -2.34179688 5.60351562 C-1.56400964 3.73450451 -0.7824152 1.86707847 0 0 Z " fill="#F3F9FA" transform="translate(583,461)"/>
<path d="M0 0 C4.29 0 8.58 0 13 0 C13 18.15 13 36.3 13 55 C12.67 55 12.34 55 12 55 C12 37.51 12 20.02 12 2 C8.7 2 5.4 2 2 2 C2 22.46 2 42.92 2 64 C3.32 64.33 4.64 64.66 6 65 C3.03 65.495 3.03 65.495 0 66 C0 44.22 0 22.44 0 0 Z " fill="#1E535D" transform="translate(497,447)"/>
<path d="M0 0 C-0.33 0.33 -0.66 0.66 -1 1 C19.46 1.33 39.92 1.66 61 2 C61 2.33 61 2.66 61 3 C38.23 3 15.46 3 -8 3 C-8 2.34 -8 1.68 -8 1 C-3.375 -1.125 -3.375 -1.125 0 0 Z " fill="#A9AEB2" transform="translate(789,258)"/>
<path d="M0 0 C-0.33 0.33 -0.66 0.66 -1 1 C5.27 1.33 11.54 1.66 18 2 C18 2.33 18 2.66 18 3 C9.42 3 0.84 3 -8 3 C-8 2.34 -8 1.68 -8 1 C-3.375 -1.125 -3.375 -1.125 0 0 Z " fill="#A2A7AB" transform="translate(789,258)"/>
<path d="M0 0 C-2.13802098 2.32509781 -4.18598137 3.82167236 -7 5.25 C-8.0209375 5.78367187 -8.0209375 5.78367187 -9.0625 6.328125 C-11 7 -11 7 -14 6 C-13.34 6 -12.68 6 -12 6 C-12 5.34 -12 4.68 -12 4 C-10.68 4 -9.36 4 -8 4 C-8 3.34 -8 2.68 -8 2 C-4.77208445 -0.1519437 -3.71599191 -0.20086443 0 0 Z " fill="#164C57" transform="translate(748,395)"/>
<path d="M0 0 C0.33 0 0.66 0 1 0 C1.3227506 4.62609198 0.84450614 7.28026121 -2 11 C-2.66 11 -3.32 11 -4 11 C-3.5247412 9.35303396 -3.04468109 7.70745272 -2.5625 6.0625 C-2.29566406 5.14597656 -2.02882813 4.22945313 -1.75390625 3.28515625 C-1 1 -1 1 0 0 Z " fill="#205460" transform="translate(772,337)"/>
<path d="M0 0 C3 3 3 3 4 6 C3.01 6 2.02 6 1 6 C1 8.64 1 11.28 1 14 C0.67 14 0.34 14 0 14 C0 9.38 0 4.76 0 0 Z " fill="#EAFAFB" transform="translate(791,473)"/>
<path d="M0 0 C0.66 0.33 1.32 0.66 2 1 C-0.97 3.97 -3.94 6.94 -7 10 C-7 6.04435836 -5.59478606 4.89133304 -3 2 C-2.01 1.34 -1.02 0.68 0 0 Z " fill="#DFEDEE" transform="translate(647,460)"/>
<path d="M0 0 C0.33 0 0.66 0 1 0 C1 2.97 1 5.94 1 9 C0.01 9 -0.98 9 -2 9 C-1.125 2.25 -1.125 2.25 0 0 Z " fill="#2A5C67" transform="translate(618,255)"/>
<path d="M0 0 C1.98 0 3.96 0 6 0 C6 0.66 6 1.32 6 2 C2.0186217 3.3271261 -1.85045227 3.06915913 -6 3 C-6 2.67 -6 2.34 -6 2 C-4.02 2 -2.04 2 0 2 C0 1.34 0 0.68 0 0 Z " fill="#124B57" transform="translate(714,405)"/>
<path d="M0 0 C0.66 0.66 1.32 1.32 2 2 C-2.75 6 -2.75 6 -5 6 C-5.33 6.66 -5.66 7.32 -6 8 C-5.65120368 4.74456771 -4.97866739 3.98126893 -2.4375 1.75 C-1.633125 1.1725 -0.82875 0.595 0 0 Z " fill="#1B505C" transform="translate(627,246)"/>
<path d="M0 0 C1.4540625 0.0309375 1.4540625 0.0309375 2.9375 0.0625 C2.1021875 0.43375 2.1021875 0.43375 1.25 0.8125 C-1.46221127 2.27856015 -3.69837365 4.09239471 -6.0625 6.0625 C-3.76028481 0.07674051 -3.76028481 0.07674051 0 0 Z " fill="#8A9096" transform="translate(767.0625,235.9375)"/>
</svg>
